<svg viewBox="0 0 300 100" xmlns="http://www.w3.org/2000/svg">

<defs>
<linearGradient id="primaryGradient" x1="0%" y1="0%" x2="100%" y2="100%">
    <stop offset="0%" style="stop-color:#6b5fff;stop-opacity:1" />
    <stop offset="100%" style="stop-color:#5a54e6;stop-opacity:1" />
</linearGradient>
    
<linearGradient id="accentGradient" x1="0%" y1="0%" x2="100%" y2="0%">
    <stop offset="0%" style="stop-color:#5a54e6;stop-opacity:0.8" />
    <stop offset="100%" style="stop-color:#7c73ff;stop-opacity:0.6" />
</linearGradient>
</defs>

<g transform="translate(10, 20)">
    <circle cx="30" cy="30" r="12" fill="url(#primaryGradient)" stroke="#FFFFFF" stroke-width="2"/>
    
    <circle cx="10" cy="15" r="6" fill="#5a54e6" opacity="0.8"/>
    <circle cx="50" cy="15" r="6" fill="#5a54e6" opacity="0.8"/>
    <circle cx="10" cy="45" r="6" fill="#5a54e6" opacity="0.8"/>
    <circle cx="50" cy="45" r="6" fill="#5a54e6" opacity="0.8"/>
    <circle cx="30" cy="5" r="5" fill="#7c73ff" opacity="0.7"/>
    <circle cx="30" cy="55" r="5" fill="#7c73ff" opacity="0.7"/>
    
    <line x1="18" y1="21" x2="24" y2="24" stroke="#5a54e6" stroke-width="2" opacity="0.6"/>
    <line x1="42" y1="21" x2="36" y2="24" stroke="#5a54e6" stroke-width="2" opacity="0.6"/>
    <line x1="18" y1="39" x2="24" y2="36" stroke="#5a54e6" stroke-width="2" opacity="0.6"/>
    <line x1="42" y1="39" x2="36" y2="36" stroke="#5a54e6" stroke-width="2" opacity="0.6"/>
    <line x1="30" y1="10" x2="30" y2="18" stroke="#7c73ff" stroke-width="2" opacity="0.6"/>
    <line x1="30" y1="50" x2="30" y2="42" stroke="#7c73ff" stroke-width="2" opacity="0.6"/>
    
    <circle cx="30" cy="30" r="18" fill="none" stroke="#5a54e6" stroke-width="1" opacity="0.3"/>
    <circle cx="30" cy="30" r="22" fill="none" stroke="#7c73ff" stroke-width="1" opacity="0.2"/>
</g>
<g transform="translate(85, 30)">
    <text x="0" y="25" font-family="Arial, sans-serif" font-size="24" font-weight="600" fill="#222222">
    Social
    </text>
    

    <text x="70" y="25" font-family="Arial, sans-serif" font-size="24" font-weight="700" fill="url(#primaryGradient)">
    Hub
    </text>
    
    <text x="0" y="45" font-family="Arial, sans-serif" font-size="11" font-weight="400" fill="#555555" opacity="0.9">
    Conectando Inovação Social
    </text>
</g>

<g transform="translate(260, 15)">
    <circle cx="5" cy="5" r="2" fill="#5a54e6" opacity="0.4"/>
    <circle cx="15" cy="12" r="1.5" fill="#7c73ff" opacity="0.5"/>
    <circle cx="8" cy="18" r="1" fill="#5a54e6" opacity="0.3"/>
</g>
</svg>